<svg xmlns="http://www.w3.org/2000/svg" width="42.995" height="54.211" viewBox="0 0 42.995 54.211">
  <g id="c1" transform="translate(-9 -3)">
    <path id="Path_42669" data-name="Path 42669" d="M48.518,57.211H13V3H48.518ZM14.869,55.342H46.648V4.869H14.869Z" transform="translate(-0.261)" fill="#ce0217"/>
    <path id="Path_42670" data-name="Path 42670" d="M44.171,57.538H18V8H44.171Zm-24.3-1.869H42.3V9.869H19.869Z" transform="translate(-0.588 -0.327)" fill="#ce0217"/>
    <path id="Path_42671" data-name="Path 42671" d="M9,59H51.995v1.869H9Z" transform="translate(0 -3.658)" fill="#ce0217"/>
    <path id="Path_42672" data-name="Path 42672" d="M24.337,39.673a2.337,2.337,0,1,1,2.337-2.337A2.337,2.337,0,0,1,24.337,39.673Zm0-2.8a.467.467,0,1,0,.467.467A.467.467,0,0,0,24.337,36.869Z" transform="translate(-0.849 -2.091)" fill="#ce0217"/>
  </g>
</svg>
