<svg xmlns="http://www.w3.org/2000/svg" width="46.111" height="52.916" viewBox="0 0 46.111 52.916">
  <g id="c2" transform="translate(-143.47 -37.582)">
    <g id="Group_97933" data-name="Group 97933" transform="translate(143.47 37.582)">
      <path id="Path_42673" data-name="Path 42673" d="M188.725,351.346h-44.4a.856.856,0,0,1-.856-.856v-47.2a4.867,4.867,0,0,1,4.862-4.862h36.387a4.867,4.867,0,0,1,4.862,4.862v47.2A.856.856,0,0,1,188.725,351.346Zm-43.543-1.712h42.687V303.292a3.154,3.154,0,0,0-3.15-3.15H148.332a3.154,3.154,0,0,0-3.15,3.15Z" transform="translate(-143.47 -298.43)" fill="#ce0217"/>
      <path id="Path_42674" data-name="Path 42674" d="M293.053,455.68H256.666a.856.856,0,0,1-.856-.856v-43.2a.856.856,0,0,1,.856-.856h16.845a.856.856,0,1,1,0,1.712H257.522v41.487H292.2V412.482H276.207a.856.856,0,0,1,0-1.712h16.845a.856.856,0,0,1,.856.856v43.2A.856.856,0,0,1,293.053,455.68Z" transform="translate(-251.804 -406.764)" fill="#ce0217"/>
      <path id="Path_42675" data-name="Path 42675" d="M766.856,488.142a.856.856,0,0,1-.856-.856v-37.85a.856.856,0,0,1,1.712,0v37.85A.856.856,0,0,1,766.856,488.142Z" transform="translate(-743.801 -443.226)" fill="#ce0217"/>
      <g id="Group_97931" data-name="Group 97931" transform="translate(27.691 22.341)">
        <path id="Path_42676" data-name="Path 42676" d="M1063.548,930.888a.856.856,0,0,1-.605-1.461l1.517-1.517-1.517-1.517a.856.856,0,1,1,1.21-1.21l2.122,2.122a.856.856,0,0,1,0,1.21l-2.122,2.122A.853.853,0,0,1,1063.548,930.888Z" transform="translate(-1057.604 -924.932)" fill="#ce0217"/>
        <path id="Path_42677" data-name="Path 42677" d="M928.066,986.152h-7.211a.856.856,0,0,1,0-1.712h7.211a.856.856,0,0,1,0,1.712Z" transform="translate(-920 -982.318)" fill="#ce0217"/>
      </g>
      <g id="Group_97932" data-name="Group 97932" transform="translate(9.497 22.341)">
        <path id="Path_42678" data-name="Path 42678" d="M412.78,930.888a.853.853,0,0,1-.605-.251l-2.122-2.122a.856.856,0,0,1,0-1.21l2.122-2.122a.856.856,0,0,1,1.21,1.21l-1.517,1.517,1.517,1.517a.856.856,0,0,1-.605,1.461Z" transform="translate(-409.802 -924.932)" fill="#ce0217"/>
        <path id="Path_42679" data-name="Path 42679" d="M417.867,986.152h-7.211a.856.856,0,0,1,0-1.712h7.21a.856.856,0,0,1,0,1.712Z" transform="translate(-409.8 -982.318)" fill="#ce0217"/>
      </g>
      <path id="Path_42680" data-name="Path 42680" d="M730.394,377.368a2.2,2.2,0,1,1,2.2-2.2A2.207,2.207,0,0,1,730.394,377.368Zm0-2.7a.492.492,0,1,0,.492.492A.493.493,0,0,0,730.394,374.672Z" transform="translate(-707.339 -370.302)" fill="#ce0217"/>
    </g>
  </g>
</svg>
