<svg xmlns="http://www.w3.org/2000/svg" width="56.611" height="54.611" viewBox="0 0 56.611 54.611">
  <g id="c3" transform="translate(-7 -1)">
    <path id="Path_42682" data-name="Path 42682" d="M52.088,53.849V1.881A.881.881,0,0,0,51.207,1H19.5a.881.881,0,0,0-.881.881V53.849H7v1.762H63.611V53.849ZM20.378,2.762H50.326V53.849H48.564V5.4a.881.881,0,0,0-.881-.881H23.021a.881.881,0,0,0-.881.881V53.849H20.378Zm7.047,3.523H32.71V8.047H27.425Zm-.881,3.523H33.59a.881.881,0,0,0,.881-.881V6.285H46.8V32.71H45.041v-.881a.881.881,0,0,0-.881-.881H30.948v-.881a.881.881,0,0,0-.881-.881H26.544a.881.881,0,0,0-.881.881V32.71H23.9V6.285h1.762V8.927A.881.881,0,0,0,26.544,9.808Zm4.4,22.9H43.279v1.762H30.948Zm-1.762-1.762v5.285H27.425V30.948ZM23.9,34.471h1.762v2.642a.881.881,0,0,0,.881.881h3.523a.881.881,0,0,0,.881-.881v-.881H44.16a.881.881,0,0,0,.881-.881v-.881H46.8V53.849H23.9Z" fill="#ce0217"/>
    <path id="Path_42683" data-name="Path 42683" d="M29,27.974a.881.881,0,0,0,.881.881H47.5a.881.881,0,0,0,.881-.881V13.881A.881.881,0,0,0,47.5,13H29.881a.881.881,0,0,0-.881.881Zm1.762-13.212H46.616V27.093H30.762Z" transform="translate(-3.337 -1.43)" fill="#ce0217"/>
  </g>
</svg>
