<svg xmlns="http://www.w3.org/2000/svg" width="45.058" height="45.058" viewBox="0 0 45.058 45.058">
  <g id="c4" transform="translate(-3 -3)">
    <path id="Path_42684" data-name="Path 42684" d="M34.111,48.058H8.364A5.37,5.37,0,0,1,3,42.694V8.364A5.37,5.37,0,0,1,8.364,3H24.949a5.389,5.389,0,0,1,3.837,1.609l9.16,9.375a5.352,5.352,0,0,1,1.529,3.756v7.992a1.073,1.073,0,0,1-2.146,0V17.74a3.218,3.218,0,0,0-.918-2.253L27.251,6.111a3.225,3.225,0,0,0-2.3-.966H8.364A3.218,3.218,0,0,0,5.146,8.364v34.33a3.218,3.218,0,0,0,3.218,3.218H34.111a3.072,3.072,0,0,0,1.18-.231,1.073,1.073,0,0,1,.816,1.985,5.222,5.222,0,0,1-2,.392Z" transform="translate(0 0)" fill="#ce0217"/>
    <path id="Path_42685" data-name="Path 42685" d="M36.434,16.924h-7.07A5.37,5.37,0,0,1,24,11.56V4.383a1.073,1.073,0,1,1,2.146,0V11.56a3.218,3.218,0,0,0,3.218,3.218h7.07a1.073,1.073,0,0,1,0,2.146Z" transform="translate(1.529 0.023)" fill="#ce0217"/>
    <path id="Path_42686" data-name="Path 42686" d="M34.8,46.507a2.137,2.137,0,0,1-1.189-.359l-3.446-2.3A16.057,16.057,0,0,1,23,30.465V28.628a2.155,2.155,0,0,1,1.653-2.087,32.1,32.1,0,0,0,8.986-4.054,2.146,2.146,0,0,1,2.324,0,32.086,32.086,0,0,0,8.986,4.054A2.155,2.155,0,0,1,46.6,28.628v1.837a16.057,16.057,0,0,1-7.166,13.39l-3.445,2.3a2.138,2.138,0,0,1-1.19.356Zm0-22.218a34.222,34.222,0,0,1-9.629,4.336l-.026,1.839a13.917,13.917,0,0,0,6.21,11.6L34.8,44.362l3.445-2.3a13.917,13.917,0,0,0,6.21-11.6V28.628A34.33,34.33,0,0,1,34.8,24.291h0Z" transform="translate(1.456 1.394)" fill="#ce0217"/>
    <path id="Path_42687" data-name="Path 42687" d="M33.218,36.437a1.073,1.073,0,0,1-.758-.314l-2.146-2.146a1.073,1.073,0,1,1,1.517-1.517l1.387,1.387,3.533-3.533a1.073,1.073,0,1,1,1.517,1.517l-4.291,4.291A1.073,1.073,0,0,1,33.218,36.437Z" transform="translate(1.966 1.966)" fill="#ce0217"/>
    <path id="Path_42688" data-name="Path 42688" d="M18.655,13.146H10.073a1.073,1.073,0,1,1,0-2.146h8.582a1.073,1.073,0,1,1,0,2.146Z" transform="translate(0.437 0.582)" fill="#ce0217"/>
    <path id="Path_42689" data-name="Path 42689" d="M25.092,19.146H10.073a1.073,1.073,0,1,1,0-2.146H25.092a1.073,1.073,0,0,1,0,2.146Z" transform="translate(0.437 1.019)" fill="#ce0217"/>
    <path id="Path_42690" data-name="Path 42690" d="M27.238,25.146H10.073a1.073,1.073,0,1,1,0-2.146H27.238a1.073,1.073,0,1,1,0,2.146Z" transform="translate(0.437 1.456)" fill="#ce0217"/>
    <path id="Path_42691" data-name="Path 42691" d="M20.8,31.146H10.073a1.073,1.073,0,1,1,0-2.146H20.8a1.073,1.073,0,0,1,0,2.146Z" transform="translate(0.437 1.893)" fill="#ce0217"/>
    <path id="Path_42692" data-name="Path 42692" d="M20.8,37.146H10.073a1.073,1.073,0,0,1,0-2.146H20.8a1.073,1.073,0,0,1,0,2.146Z" transform="translate(0.437 2.33)" fill="#ce0217"/>
  </g>
</svg>
