<svg xmlns="http://www.w3.org/2000/svg" width="50.971" height="55.337" viewBox="0 0 50.971 55.337">
  <g id="c5" transform="translate(-1.572 -0.3)">
    <path id="Path_42693" data-name="Path 42693" d="M43.74,7.5H12.277V48.753H8.486v1.664H47.53V48.753H43.742V7.5ZM42.075,48.753H13.942V9.168H42.075Z" transform="translate(4.812 5.02)" fill="#ce0418" stroke="#ce0217" stroke-width="0.4"/>
    <path id="Path_42694" data-name="Path 42694" d="M15.718,25.744a2.919,2.919,0,1,0-2.919-2.92,2.924,2.924,0,0,0,2.919,2.92Zm0-4.172a1.252,1.252,0,1,1-1.253,1.252,1.254,1.254,0,0,1,1.253-1.252Z" transform="translate(7.904 13.91)" fill="#ce0418" stroke="#ce0217" stroke-width="0.4"/>
    <path id="Path_42695" data-name="Path 42695" d="M12.359,4.648H40.492V7.128h1.665V.5H40.492V2.984H12.359V.5H10.694V7.128h1.665Z" transform="translate(6.395)" fill="#ce0418" stroke="#ce0217" stroke-width="0.4"/>
    <path id="Path_42696" data-name="Path 42696" d="M1.772,9.168H4.253V48.753H1.772v1.664H8.4V48.753H5.918V9.168H8.4V7.5H1.772Z" transform="translate(0 5.02)" fill="#ce0418" stroke="#ce0217" stroke-width="0.4"/>
  </g>
</svg>
