<svg id="c6" xmlns="http://www.w3.org/2000/svg" width="51.327" height="51.327" viewBox="0 0 51.327 51.327">
  <g id="Group_97940" data-name="Group 97940" transform="translate(0 49.616)">
    <g id="Group_97939" data-name="Group 97939">
      <path id="Path_42697" data-name="Path 42697" d="M50.472,494.933H.855a.855.855,0,0,0,0,1.711H50.472a.855.855,0,0,0,0-1.711Z" transform="translate(0 -494.933)" fill="#ce0217"/>
    </g>
  </g>
  <g id="Group_97942" data-name="Group 97942" transform="translate(2.566)">
    <g id="Group_97941" data-name="Group 97941">
      <path id="Path_42698" data-name="Path 42698" d="M48.7,0H26.455A.855.855,0,0,0,25.6.855V50.472a.855.855,0,0,0,.855.855H48.7a.855.855,0,0,0,.855-.855V.855A.855.855,0,0,0,48.7,0Zm-.855,49.616H27.311V1.711H47.842Z" transform="translate(-25.6)" fill="#ce0217"/>
    </g>
  </g>
  <g id="Group_97944" data-name="Group 97944" transform="translate(5.988 3.422)">
    <g id="Group_97943" data-name="Group 97943">
      <path id="Path_42699" data-name="Path 42699" d="M75.988,34.133h-15.4a.855.855,0,0,0-.855.855V81.183a.855.855,0,0,0,.855.855h15.4a.855.855,0,0,0,.855-.855V34.988A.855.855,0,0,0,75.988,34.133Zm-.856,46.195H61.445V35.844H75.132V80.328Z" transform="translate(-59.734 -34.133)" fill="#ce0217"/>
    </g>
  </g>
  <g id="Group_97946" data-name="Group 97946" transform="translate(24.808)">
    <g id="Group_97945" data-name="Group 97945">
      <path id="Path_42700" data-name="Path 42700" d="M270.564,0H248.322a.855.855,0,0,0-.855.855V50.472a.855.855,0,0,0,.855.855h22.242a.855.855,0,0,0,.855-.855V.855A.855.855,0,0,0,270.564,0Zm-.856,49.616H249.178V1.711h20.531Z" transform="translate(-247.467)" fill="#ce0217"/>
    </g>
  </g>
  <g id="Group_97948" data-name="Group 97948" transform="translate(28.23 3.422)">
    <g id="Group_97947" data-name="Group 97947">
      <path id="Path_42701" data-name="Path 42701" d="M297.854,34.133h-15.4a.855.855,0,0,0-.855.855V81.183a.855.855,0,0,0,.855.855h15.4a.855.855,0,0,0,.855-.855V34.988A.855.855,0,0,0,297.854,34.133ZM297,80.328H283.311V35.844H297Z" transform="translate(-281.6 -34.133)" fill="#ce0217"/>
    </g>
  </g>
  <g id="Group_97950" data-name="Group 97950" transform="translate(31.652 21.386)">
    <g id="Group_97949" data-name="Group 97949">
      <path id="Path_42702" data-name="Path 42702" d="M316.589,213.333a.855.855,0,0,0-.855.855v10.265a.855.855,0,1,0,1.711,0V214.188A.855.855,0,0,0,316.589,213.333Z" transform="translate(-315.734 -213.333)" fill="#ce0217"/>
    </g>
  </g>
  <g id="Group_97952" data-name="Group 97952" transform="translate(17.965 21.386)">
    <g id="Group_97951" data-name="Group 97951">
      <path id="Path_42703" data-name="Path 42703" d="M180.055,213.333a.855.855,0,0,0-.855.855v10.265a.855.855,0,0,0,1.711,0V214.188A.855.855,0,0,0,180.055,213.333Z" transform="translate(-179.2 -213.333)" fill="#ce0217"/>
    </g>
  </g>
</svg>
