<svg xmlns="http://www.w3.org/2000/svg" width="1797.438" height="352.136" viewBox="0 0 1797.438 352.136">
  <g id="footer-logo" transform="translate(25 -107.026)">
    <path id="Path_35" data-name="Path 35" d="M204.912,238.789,45.253,88.472V244.248H0V40.611C0,26.78,10.616,20.35,26.023,20.35c10.919,0,17.956,3.215,22.808,8.007L209.7,183.467V25.142h46.224V228.78c0,14.437-9.948,20.261-24.386,20.261C221.291,249.041,212.616,246.129,204.912,238.789Z" transform="translate(-25 210.121)" fill="#fff"/>
    <path id="Path_36" data-name="Path 36" d="M154.9,349.648V115.619L26.42,0H92.237l88.322,78.07L270.458,0h62.3L203.671,116.286V349.709H154.839Z" transform="translate(108.846 107.026)" fill="#fff"/>
    <path id="Path_37" data-name="Path 37" d="M144.09,244.588c-64.543,0-83.53-19.9-83.53-75.159V95.909c0-55.262,18.926-75.159,83.53-75.159H295.985v42.1H146.334c-29.845,0-37.246,8.674-37.246,35.668v69.032c0,27.3,7.4,35.3,37.61,35.3H296.045v41.735H144.151Z" transform="translate(281.801 212.147)" fill="#fff"/>
    <path id="Path_38" data-name="Path 38" d="M108.93,245.59V20.66H287.091c66.97,0,86.442,20.443,86.442,77.16v70.609c0,56.718-19.472,77.16-86.442,77.16ZM323.366,100.125c0-27.722-8.614-36.275-38.277-36.275H159.1V202.7H285.089c27.055,0,38.277-7.583,38.277-35.972Z" transform="translate(526.846 211.691)" fill="#fff"/>
    <path id="Path_39" data-name="Path 39" d="M243.294,245.59c-66.3,0-85.774-20.443-85.774-77.16V97.82c0-56.718,19.472-77.16,85.774-77.16H328.7c66.666,0,86.077,20.443,86.077,77.16v70.609c0,56.718-19.472,77.16-86.077,77.16ZM364.676,100.125c0-28.025-8.553-36.275-37.913-36.275H245.6c-31.665,0-38.277,8.25-38.277,36.275v66.3c0,29.36,6.612,36.275,38.277,36.275h81.164c29.36,0,37.913-6.915,37.913-36.275Z" transform="translate(773.008 211.691)" fill="#fff"/>
    <path id="Path_40" data-name="Path 40" d="M290.664,245.59c-66.3,0-85.774-20.443-85.774-77.16V97.82c0-56.718,19.472-77.16,85.774-77.16h85.41c66.666,0,86.078,20.443,86.078,77.16v70.609c0,56.718-19.472,77.16-86.078,77.16ZM412.046,100.125c0-28.025-8.553-36.275-37.913-36.275H292.969c-31.665,0-38.277,8.25-38.277,36.275v66.3c0,29.36,6.612,36.275,38.277,36.275h81.164c29.36,0,37.913-6.915,37.913-36.275Z" transform="translate(1012.988 211.691)" fill="#fff"/>
    <path id="Path_41" data-name="Path 41" d="M421.059,244.5,302.443,163.819V245.65h-49.8V20.66H428.8c63.027,0,88.747,13.527,88.747,67.637v15.529c0,52.107-28.025,65.635-89.414,65.635h-39.55l111.8,75.041Zm46.32-153.6c0-24.082-8.917-28.025-41.917-28.025H302.443v68.607h123.02c32.332,0,41.917-3.943,41.917-28.389V90.905Z" transform="translate(1254.893 211.691)" fill="#fff"/>
  </g>
</svg>
