<svg xmlns="http://www.w3.org/2000/svg" width="189.781" height="46.388" viewBox="0 0 189.781 46.388">
  <g id="footer-logo-sm" transform="translate(-69 -28)">
    <g id="Layer_1" data-name="Layer 1" transform="translate(69 28.01)">
      <g id="Group_12" data-name="Group 12" transform="translate(0 -0.01)">
        <path id="Path_35" data-name="Path 35" d="M19.555,41.2,4.319,26.851V41.717H0V22.284c0-1.32,1.013-1.934,2.483-1.934a2.92,2.92,0,0,1,2.177.764l15.352,14.8V20.807h4.411V40.241c0,1.378-.949,1.934-2.327,1.934A3.474,3.474,0,0,1,19.555,41.2Z" transform="translate(0 -8.564)" fill="#ce0217"/>
        <path id="Path_36" data-name="Path 36" d="M38.681,33.368V11.034L26.42,0H32.7L41.13,7.45,49.709,0h5.945L43.335,11.1V33.374h-4.66Z" transform="translate(-11.125 0.006)" fill="#ce0217"/>
        <path id="Path_37" data-name="Path 37" d="M68.531,42.111c-6.16,0-7.971-1.9-7.971-7.173V27.923c0-5.274,1.806-7.173,7.971-7.173h14.5v4.018H68.746c-2.848,0-3.554.828-3.554,3.4v6.588c0,2.605.706,3.369,3.589,3.369H83.033v3.983h-14.5Z" transform="translate(-25.502 -8.732)" fill="#ce0217"/>
        <g id="Group_9" data-name="Group 9" transform="translate(63.06 11.966)">
          <path id="Path_38" data-name="Path 38" d="M108.93,42.126V20.66h17c6.391,0,8.249,1.951,8.249,7.364v6.738c0,5.413-1.858,7.364-8.249,7.364Zm20.464-13.882c0-2.646-.822-3.462-3.653-3.462H113.718V38.033h12.024c2.582,0,3.653-.724,3.653-3.433Z" transform="translate(-108.93 -20.66)" fill="#fff"/>
          <path id="Path_39" data-name="Path 39" d="M165.706,42.126c-6.327,0-8.186-1.951-8.186-7.364V28.024c0-5.413,1.858-7.364,8.186-7.364h8.151c6.362,0,8.215,1.951,8.215,7.364v6.738c0,5.413-1.858,7.364-8.215,7.364Zm11.584-13.882c0-2.675-.816-3.462-3.618-3.462h-7.746c-3.022,0-3.653.787-3.653,3.462v6.327c0,2.8.631,3.462,3.653,3.462h7.746c2.8,0,3.618-.66,3.618-3.462Z" transform="translate(-129.391 -20.66)" fill="#fff"/>
          <path id="Path_40" data-name="Path 40" d="M213.076,42.126c-6.327,0-8.186-1.951-8.186-7.364V28.024c0-5.413,1.858-7.364,8.186-7.364h8.151c6.362,0,8.215,1.951,8.215,7.364v6.738c0,5.413-1.858,7.364-8.215,7.364Zm11.584-13.882c0-2.675-.816-3.462-3.618-3.462H213.3c-3.022,0-3.653.787-3.653,3.462v6.327c0,2.8.631,3.462,3.653,3.462h7.746c2.8,0,3.618-.66,3.618-3.462Z" transform="translate(-149.339 -20.66)" fill="#fff"/>
          <path id="Path_41" data-name="Path 41" d="M287.912,55.081l-30.52-20.759v7.809H252.64V20.66h16.811c6.015,0,8.469,1.291,8.469,6.455V28.6c0,4.973-2.674,6.264-8.533,6.264h-3.774l30.554,20.221h-8.249ZM273.133,27.364c0-2.3-.851-2.675-4-2.675h-11.74v6.547h11.74c3.086,0,4-.376,4-2.709V27.364Z" transform="translate(-169.446 -20.66)" fill="#fff"/>
        </g>
        <g id="Group_10" data-name="Group 10" transform="translate(63.06 39.001)">
          <path id="Path_42" data-name="Path 42" d="M111.622,74.708c-2.084,0-2.692-.643-2.692-2.426V70.066c0-1.783.614-2.426,2.692-2.426h4.9V69H111.7c-.961,0-1.2.278-1.2,1.152v2.072c0,.88.237,1.14,1.21,1.14h4.822v1.349h-4.9Z" transform="translate(-108.93 -67.478)" fill="#ce0217"/>
          <path id="Path_43" data-name="Path 43" d="M136.262,74.708c-2.084,0-2.692-.643-2.692-2.426V70.066c0-1.783.614-2.426,2.692-2.426h2.686c2.1,0,2.7.643,2.7,2.426v2.217c0,1.783-.614,2.426-2.7,2.426Zm3.815-4.573c0-.88-.272-1.14-1.193-1.14h-2.547c-1,0-1.2.26-1.2,1.14v2.084c0,.92.208,1.14,1.2,1.14h2.547c.92,0,1.193-.22,1.193-1.14Z" transform="translate(-119.306 -67.478)" fill="#ce0217"/>
          <path id="Path_44" data-name="Path 44" d="M169.1,74.595V69.94l-3.45,4.51a.952.952,0,0,1-1.389,0l-3.439-4.51v4.654h-1.43V68.013c0-.446.365-.643.851-.643a.807.807,0,0,1,.747.33l3.989,5.3L169,67.7a.76.76,0,0,1,.706-.33c.475,0,.851.2.851.643v6.582H169.1Z" transform="translate(-130.179 -67.364)" fill="#ce0217"/>
          <path id="Path_45" data-name="Path 45" d="M192.165,72.688v2.02H190.59V67.64h5.662c2.02,0,2.651.614,2.651,2.281v.614c0,1.69-.59,2.154-2.651,2.154H192.17Zm5.158-2.709c0-.764-.272-.984-1.117-.984h-4.041v2.414h4.064c.828,0,1.1-.2,1.1-.944v-.486Z" transform="translate(-143.317 -67.478)" fill="#ce0217"/>
          <path id="Path_46" data-name="Path 46" d="M221.371,72.968h-4.892l-1.007,1.627H213.66l4.1-6.53a1.256,1.256,0,0,1,1.193-.695,1.238,1.238,0,0,1,1.181.695l4.081,6.53H222.4l-1.025-1.627Zm-4.157-1.216h3.421l-1.708-2.79-1.708,2.79Z" transform="translate(-153.032 -67.364)" fill="#ce0217"/>
          <path id="Path_47" data-name="Path 47" d="M249.551,74.411,244.4,69.56v5.025H242.94V68.014c0-.446.342-.654.839-.654a.977.977,0,0,1,.735.261l5.193,5.007V67.516H251.2v6.571c0,.469-.318.654-.787.654A1.181,1.181,0,0,1,249.551,74.411Z" transform="translate(-165.362 -67.36)" fill="#ce0217"/>
          <path id="Path_48" data-name="Path 48" d="M272.285,74.708v-3.34L268.14,67.64h2.125l2.848,2.518,2.9-2.518h2.009l-4.168,3.751v3.317h-1.575Z" transform="translate(-175.973 -67.478)" fill="#ce0217"/>
        </g>
        <g id="Group_11" data-name="Group 11" transform="translate(48.871)">
          <path id="Path_49" data-name="Path 49" d="M87.529,7.2V1.384H84.42V0H92.3V1.384H89.2V7.2H87.534Z" transform="translate(-84.42 0.006)" fill="#fff"/>
          <path id="Path_50" data-name="Path 50" d="M116,7.2V4.324h-5.436V7.2H108.91V0h1.656V2.935H116V0h1.644V7.2Z" transform="translate(-94.733 0.006)" fill="#fff"/>
          <path id="Path_51" data-name="Path 51" d="M138.335,7.192c-2.188,0-2.825-.654-2.825-2.472V2.462c0-1.818.643-2.472,2.825-2.472h5.175V1.35h-5.175c-.955,0-1.187.272-1.187,1.106v.486h6.316V4.222h-6.316v.5c0,.868.22,1.1,1.187,1.1h5.175v1.36h-5.175Z" transform="translate(-105.934 0.01)" fill="#fff"/>
        </g>
        <rect id="Rectangle_3" data-name="Rectangle 3" width="57.525" height="7.225" rx="2.84" transform="translate(0 39.163)" fill="#fff"/>
      </g>
    </g>
  </g>
</svg>
