<svg xmlns="http://www.w3.org/2000/svg" xmlns:xlink="http://www.w3.org/1999/xlink" width="1782.001" height="144.947" viewBox="0 0 1782.001 144.947">
  <defs>
    <clipPath id="clip-path">
      <rect width="1782.001" height="144.947" fill="none"/>
    </clipPath>
  </defs>
  <g id="logo-text-cta" clip-path="url(#clip-path)">
    <g id="Group_97992" data-name="Group 97992" transform="translate(-69 -6236.661)">
      <path id="Union_133" data-name="Union 133" d="M24692.768,22004.789l-47.48-62.266v64.264h-19.744V21915.9c0-6.154,5.035-8.869,11.754-8.869,5.111,0,7.832,1.279,10.311,4.553l55.072,73.143,55.559-73.143c2.4-3.115,4.717-4.553,9.752-4.553,6.555,0,11.748,2.715,11.748,8.869v90.887h-20.145v-64.264l-47.641,62.266c-2.312,2.881-5.275,4.158-9.592,4.158S24695.088,22007.67,24692.768,22004.789Zm462.943-.477-71.143-66.988v69.385h-20.145v-90.727c0-6.152,4.717-9.033,11.588-9.033,4.877,0,8,1.438,10.152,3.6l71.707,69.146v-70.588h20.623v90.727c0,6.477-4.4,9.033-10.871,9.033A16.316,16.316,0,0,1,25155.711,22004.313Zm-1519.965.084-68.369-64.365v66.7H23548v-87.2c0-5.926,4.545-8.678,11.143-8.678,4.672,0,7.686,1.379,9.766,3.432l68.883,66.418v-67.8h19.8v87.2c0,6.18-4.26,8.672-10.445,8.672A15.594,15.594,0,0,1,23635.746,22004.4Zm568.488,3.609v-96.34h75.426c26.99,0,38,5.791,38,28.957v6.654c0,22.309-12,28.105-38.283,28.105h-16.934l47.873,32.129h-33.971l-50.793-34.545v35.039Zm21.32-48.885h52.68c13.846,0,17.947-1.691,17.947-12.16v-5.219c0-10.312-3.814-12-17.947-12h-52.68Zm-108.629,48.859c-28.389,0-36.723-8.752-36.723-33.043V21944.7c0-24.283,8.334-33.037,36.723-33.037h36.578c28.543,0,36.859,8.754,36.859,33.037v30.234c0,24.291-8.342,33.043-36.859,33.043Zm-15.4-62.291v28.391c0,12.574,2.836,15.535,16.395,15.535h34.754c12.568,0,16.229-2.961,16.229-15.535v-28.391c0-12-3.66-15.531-16.229-15.531h-34.754C24104.359,21930.158,24101.523,21933.693,24101.523,21945.689Zm-107.637,62.291c-28.391,0-36.73-8.752-36.73-33.043V21944.7c0-24.283,8.34-33.037,36.73-33.037h36.572c28.543,0,36.857,8.754,36.857,33.037v30.234c0,24.291-8.34,33.043-36.857,33.043Zm-15.4-62.291v28.391c0,12.574,2.828,15.535,16.389,15.535h34.752c12.574,0,16.236-2.961,16.236-15.535v-28.391c0-12-3.662-15.531-16.236-15.531h-34.752C23981.313,21930.158,23978.484,21933.693,23978.484,21945.689Zm-147.539,62.291v-96.314h76.289c28.678,0,37.012,8.754,37.012,33.037v30.234c0,24.291-8.334,33.043-37.012,33.043Zm21.479-18.365h53.953c11.582,0,16.389-3.248,16.389-15.4v-28.523c0-11.869-3.687-15.531-16.389-15.531h-53.953Zm-111.328,18.131h-.027c-27.633,0-35.764-8.518-35.764-32.186v-31.48c0-23.66,8.105-32.186,35.764-32.186h65.045v18.029h-64.078c-12.783,0-15.949,3.713-15.949,15.275v29.561c0,11.689,3.166,15.117,16.1,15.117h63.951v17.869Zm-69.482,0,.025-.025V21907.51l-55.014-49.51h28.188l37.816,33.432,38.492-33.432h26.68l-55.279,49.795v99.951Zm749.24-.877v-.076c-28.777,0-37.168-8.875-37.168-33.5v-30.615c0-24.619,8.473-33.494,37.168-33.494h67.7v18.785h-66.666c-13.268,0-16.623,3.84-16.623,15.91v28.613c0,12.154,3.273,15.746,16.705,15.746h66.584v18.627Zm829.85-.076.082-.006v-46.121l-57.232-51.479h29.332l39.33,34.773,40.049-34.773H25330l-57.551,51.8v45.809Zm-712.428,0c-28.779,0-37.17-8.875-37.17-33.5v-30.615c0-24.619,8.473-33.494,37.17-33.494h37.086c28.938,0,37.334,8.875,37.334,33.494v30.615c0,24.621-8.473,33.5-37.334,33.5Zm-15.588-63.15v28.777c0,12.707,2.879,15.746,16.623,15.746h35.174c12.707,0,16.465-3.039,16.465-15.746v-28.777c0-12.154-3.758-15.746-16.465-15.746h-35.174C24525.566,21927.9,24522.688,21931.488,24522.688,21943.643Zm505.438,63.145-14.15-22.461h-67.543l-13.91,22.461h-25.02l56.678-90.162c3.434-5.6,7.592-9.594,16.465-9.594s12.867,3.992,16.307,9.594l56.354,90.162Zm-24.3-39.25-23.584-38.521-23.578,38.521Zm-47.162,0h-.082Zm-166.082,39.25v-97.6h78.178c27.895,0,36.609,8.473,36.609,31.5v8.469c0,23.342-8.156,29.738-36.609,29.738h-56.437v27.895Zm21.74-45.562h56.113c11.436,0,15.188-2.713,15.188-13.025v-6.719h-.076c0-10.547-3.758-13.584-15.43-13.584h-55.795Z" transform="translate(-23479 -15621.34)" fill="#fff9f9"/>
    </g>
  </g>
</svg>
