<svg xmlns="http://www.w3.org/2000/svg" xmlns:xlink="http://www.w3.org/1999/xlink" width="382.184" height="1285.496" viewBox="0 0 382.184 1285.496">
  <defs>
    <filter id="logo-text" x="0" y="0" width="382.184" height="1285.496" filterUnits="userSpaceOnUse">
      <feOffset dy="14" input="SourceAlpha"/>
      <feGaussianBlur stdDeviation="49.5" result="blur"/>
      <feFlood flood-color="#030509" flood-opacity="0.329"/>
      <feComposite operator="in" in2="blur"/>
      <feComposite in="SourceGraphic"/>
    </filter>
  </defs>
  <g transform="matrix(1, 0, 0, 1, 0, 0)" filter="url(#logo-text)">
    <path id="logo-text-2" data-name="logo-text" d="M8810.306,27482.461l-26.241-34.316v35.414h-10.91v-50.086c0-3.387,2.78-4.879,6.493-4.879,2.827,0,4.327.7,5.7,2.508l30.441,40.3,30.7-40.3c1.329-1.719,2.605-2.508,5.392-2.508,3.624,0,6.5,1.492,6.5,4.879v50.086h-11.132v-35.414l-26.332,34.316a7.278,7.278,0,0,1-10.605,0Zm255.862-.266-39.32-36.906v38.227h-11.132v-49.988c0-3.395,2.606-4.98,6.405-4.98a7.469,7.469,0,0,1,5.612,1.98l39.627,38.109v-38.9h11.4v49.992c0,3.566-2.432,4.977-6.009,4.977A9.016,9.016,0,0,1,9066.168,27482.2Zm-840.064.043-37.785-35.461v36.75h-10.71v-48.043c0-3.27,2.511-4.785,6.156-4.785a7.26,7.26,0,0,1,5.4,1.887l38.074,36.6v-37.359h10.938v48.047c0,3.414-2.352,4.781-5.771,4.781A8.6,8.6,0,0,1,8226.1,27482.238Zm314.191,2v-53.09h41.689c14.92,0,21,3.191,21,15.957v3.668c0,12.289-6.634,15.488-21.158,15.488h-9.364l26.464,17.7h-18.777l-28.071-19.039v19.316Zm11.786-26.937H8581.2c7.65,0,9.918-.93,9.918-6.707v-2.871c0-5.68-2.107-6.617-9.918-6.617h-29.116Zm-60.034,26.922c-15.69,0-20.3-4.824-20.3-18.207v-16.66c0-13.379,4.61-18.207,20.3-18.207h20.212c15.78,0,20.37,4.828,20.37,18.207v16.66c0,13.383-4.606,18.207-20.37,18.207Zm-8.516-34.32v15.637c0,6.93,1.567,8.563,9.061,8.563H8511.8c6.95,0,8.975-1.633,8.975-8.562V27449.9c0-6.617-2.024-8.562-8.975-8.562h-19.207C8485.1,27441.336,8483.531,27443.281,8483.531,27449.9Zm-59.489,34.32c-15.691,0-20.3-4.824-20.3-18.207v-16.66c0-13.379,4.61-18.207,20.3-18.207h20.211c15.78,0,20.369,4.828,20.369,18.207v16.66c0,13.383-4.6,18.207-20.369,18.207Zm-8.516-34.32v15.637c0,6.93,1.566,8.563,9.058,8.563h19.211c6.947,0,8.974-1.633,8.974-8.562V27449.9c0-6.617-2.026-8.562-8.974-8.562h-19.211C8417.093,27441.336,8415.526,27443.281,8415.526,27449.9Zm-81.538,34.32v-53.074h42.16c15.854,0,20.46,4.828,20.46,18.207v16.66c0,13.383-4.606,18.207-20.46,18.207Zm11.871-10.121h29.819c6.4,0,9.057-1.789,9.057-8.488V27449.9c0-6.543-2.039-8.562-9.057-8.562h-29.819Zm-61.532,9.988h-.011c-15.277,0-19.769-4.691-19.769-17.73V27449c0-13.039,4.48-17.73,19.769-17.73h35.943v9.93h-35.416c-7.064,0-8.81,2.047-8.81,8.418v16.293c0,6.438,1.745,8.328,8.9,8.328h35.343v9.844Zm-38.4,0,.017-.008v-55.223l-30.405-27.285h15.573l20.9,18.422,21.276-18.422h14.74l-30.547,27.441v55.074Zm414.1-.477v-.051c-15.907,0-20.545-4.887-20.545-18.457v-16.871c0-13.562,4.68-18.453,20.545-18.453h37.416v10.348H8660.6c-7.338,0-9.19,2.117-9.19,8.773v15.766c0,6.7,1.81,8.676,9.233,8.676h36.8v10.27Zm458.69-.051v-25.418l-31.632-28.363h16.211l21.737,19.156,22.138-19.156h15.324l-31.807,28.543v25.238Zm-.047,0h.047Zm-123.018,0-7.816-12.379H8950.5l-7.687,12.379h-13.829l31.322-49.68c1.9-3.086,4.2-5.285,9.1-5.285s7.111,2.2,9.016,5.285l31.145,49.68Zm-13.426-21.629-13.038-21.223-13.029,21.223Zm-26.067,0h-.042Zm-91.789,21.629v-53.781h43.2c15.421,0,20.237,4.668,20.237,17.359v4.668c0,12.859-4.5,16.383-20.237,16.383h-31.186v15.371Zm12.018-25.109H8907.4c6.321,0,8.394-1.5,8.394-7.172v-3.7h-.042c0-5.824-2.078-7.5-8.525-7.5h-30.837Zm-151.47,25.109c-15.9,0-20.543-4.887-20.543-18.457v-16.871c0-13.562,4.685-18.453,20.543-18.453h20.5c15.991,0,20.627,4.891,20.627,18.453v16.871c0,13.57-4.679,18.457-20.627,18.457Zm-8.615-34.8v15.859c0,7,1.594,8.676,9.19,8.676h19.441c7.022,0,9.1-1.672,9.1-8.676v-15.859c0-6.691-2.079-8.68-9.1-8.68h-19.441C8717.895,27440.082,8716.3,27442.07,8716.3,27448.762Z" transform="translate(-27252.07 9299.6) rotate(-90)" fill="none" stroke="#fff" stroke-width="2" opacity="0.67"/>
  </g>
</svg>
