<svg xmlns="http://www.w3.org/2000/svg" width="85.184" height="988.496" viewBox="0 0 85.184 988.496">
  <path id="logo-text-" d="M8815.609,27485.754a7.222,7.222,0,0,1-6.081-2.664l-.017-.021-24.447-31.971v33.461h-12.91v-51.086a5.247,5.247,0,0,1,2.288-4.533,9.2,9.2,0,0,1,5.205-1.346c3.087,0,4.907.814,6.494,2.9l29.649,39.256,29.906-39.262a7.123,7.123,0,0,1,2.5-2.184,8.13,8.13,0,0,1,3.686-.713,9.2,9.2,0,0,1,5.169,1.342,5.245,5.245,0,0,1,2.326,4.537v51.086h-13.132v-33.469l-24.555,32A7.221,7.221,0,0,1,8815.609,27485.754Zm-4.518-3.91a6.294,6.294,0,0,0,9.034,0l28.117-36.643v37.359h9.132v-49.086a3.24,3.24,0,0,0-1.451-2.883,7.24,7.24,0,0,0-4.044-1c-2.515,0-3.487.682-4.6,2.113l-31.5,41.354-.795-1.051-30.441-40.3c-1.2-1.578-2.436-2.111-4.9-2.111a7.263,7.263,0,0,0-4.072.994,3.246,3.246,0,0,0-1.421,2.885v49.086h8.91v-37.367l1.794,2.346Zm261.66,3.863a10.046,10.046,0,0,1-7.269-2.783l-37.636-35.324v36.916h-13.132v-50.988c0-3.744,2.769-5.98,7.405-5.98a8.472,8.472,0,0,1,6.312,2.266l37.928,36.475v-37.549h13.4v50.992a5.454,5.454,0,0,1-2.06,4.623A8.069,8.069,0,0,1,9072.752,27485.707Zm-46.9-42.729,1.685,1.582,39.325,36.91a8.035,8.035,0,0,0,5.895,2.236,6.172,6.172,0,0,0,3.742-.949,3.52,3.52,0,0,0,1.267-3.027v-48.992h-9.4v40.248l-1.693-1.629-39.641-38.123a6.593,6.593,0,0,0-4.905-1.687,6.918,6.918,0,0,0-4.038,1.025,3.393,3.393,0,0,0-1.367,2.955v48.988h9.132Zm-793.445,42.678a10.541,10.541,0,0,1-3.726-.621,9.412,9.412,0,0,1-3.264-2.072l-36.095-33.875v35.439h-12.71v-49.043c0-3.623,2.675-5.785,7.156-5.785a8.258,8.258,0,0,1,6.1,2.174l36.374,34.967v-36.012h12.938v49.047a5.278,5.278,0,0,1-2,4.469A7.774,7.774,0,0,1,8232.4,27485.656Zm-45.084-41.189,1.685,1.582,37.791,35.465a7.637,7.637,0,0,0,5.608,2.143,5.874,5.874,0,0,0,3.564-.908,3.34,3.34,0,0,0,1.207-2.873v-47.047h-8.937v38.707l-1.693-1.627-38.082-36.609a6.376,6.376,0,0,0-4.7-1.6,6.623,6.623,0,0,0-3.857.975,3.225,3.225,0,0,0-1.3,2.811v47.043h8.71Zm365.763,40.768h-13.786v-55.09h42.689c8.341,0,13.328,1.01,16.674,3.375a11.239,11.239,0,0,1,4.08,5.346,23.014,23.014,0,0,1,1.25,8.236v3.668c0,6.436-1.771,10.625-5.574,13.182-3.4,2.287-8.515,3.307-16.584,3.307h-6.07l26.464,17.7h-22.378l-.255-.172-26.51-17.98Zm-11.786-2h9.786v-20.2l1.562,1.059,27.817,18.867h15.176l-26.464-17.7h12.658c7.647,0,12.418-.914,15.468-2.965a9.387,9.387,0,0,0,3.5-4.3,18.67,18.67,0,0,0,1.186-7.219v-3.668c0-11.463-4.674-14.957-20-14.957h-40.689Zm-29.036,1.984h-20.212c-8.3,0-13.459-1.342-16.713-4.352a12.9,12.9,0,0,1-3.583-6.086,31.809,31.809,0,0,1-1-8.77v-16.66a31.8,31.8,0,0,1,1-8.768,12.906,12.906,0,0,1,3.583-6.088c3.255-3.01,8.409-4.352,16.713-4.352h20.212c8.345,0,13.52,1.342,16.781,4.352a12.877,12.877,0,0,1,3.586,6.088,31.82,31.82,0,0,1,1,8.768v16.66a31.758,31.758,0,0,1-1.006,8.77,12.875,12.875,0,0,1-3.59,6.088C8525.771,27483.877,8520.6,27485.219,8512.259,27485.219Zm-20.212-53.074a39.869,39.869,0,0,0-9.548.934,12.957,12.957,0,0,0-5.808,2.887,10.974,10.974,0,0,0-3.02,5.176,29.871,29.871,0,0,0-.926,8.211v16.66a29.9,29.9,0,0,0,.926,8.213,10.974,10.974,0,0,0,3.02,5.176,12.955,12.955,0,0,0,5.808,2.885,39.863,39.863,0,0,0,9.548.934h20.212a40.208,40.208,0,0,0,9.591-.934,13,13,0,0,0,5.828-2.887,10.937,10.937,0,0,0,3.024-5.176,29.81,29.81,0,0,0,.927-8.211v-16.66a29.937,29.937,0,0,0-.924-8.211,10.959,10.959,0,0,0-3.021-5.176,13,13,0,0,0-5.827-2.887,40.259,40.259,0,0,0-9.6-.934Zm-47.794,53.074h-20.211c-8.3,0-13.459-1.342-16.714-4.352a12.9,12.9,0,0,1-3.583-6.086,31.809,31.809,0,0,1-1-8.77v-16.66a31.8,31.8,0,0,1,1-8.768,12.906,12.906,0,0,1,3.583-6.088c3.255-3.01,8.41-4.352,16.714-4.352h20.211c8.345,0,13.52,1.342,16.78,4.352a12.869,12.869,0,0,1,3.586,6.088,31.82,31.82,0,0,1,1,8.768v16.66a31.758,31.758,0,0,1-1.006,8.77,12.873,12.873,0,0,1-3.589,6.088C8457.766,27483.877,8452.592,27485.219,8444.253,27485.219Zm-20.211-53.074a39.878,39.878,0,0,0-9.549.934,12.962,12.962,0,0,0-5.808,2.887,10.974,10.974,0,0,0-3.02,5.176,29.871,29.871,0,0,0-.926,8.211v16.66a29.9,29.9,0,0,0,.926,8.213,10.974,10.974,0,0,0,3.02,5.176,12.955,12.955,0,0,0,5.808,2.885,39.878,39.878,0,0,0,9.549.934h20.211a40.208,40.208,0,0,0,9.591-.934,12.985,12.985,0,0,0,5.827-2.887,10.946,10.946,0,0,0,3.025-5.176,29.852,29.852,0,0,0,.926-8.211v-16.66a29.937,29.937,0,0,0-.924-8.211,10.943,10.943,0,0,0-3.021-5.176,13,13,0,0,0-5.826-2.887,40.259,40.259,0,0,0-9.6-.934Zm-47.894,53.074h-43.16v-55.074h43.16c8.381,0,13.578,1.342,16.852,4.35a12.868,12.868,0,0,1,3.6,6.088,31.666,31.666,0,0,1,1.008,8.77v16.66a31.656,31.656,0,0,1-1.008,8.77,12.849,12.849,0,0,1-3.6,6.088C8389.727,27483.877,8384.529,27485.219,8376.148,27485.219Zm-41.16-2h41.16a40.626,40.626,0,0,0,9.644-.934,13.065,13.065,0,0,0,5.854-2.889,10.92,10.92,0,0,0,3.034-5.174,29.805,29.805,0,0,0,.928-8.211v-16.66a29.78,29.78,0,0,0-.928-8.209,10.926,10.926,0,0,0-3.034-5.176,13.085,13.085,0,0,0-5.854-2.889,40.632,40.632,0,0,0-9.644-.934h-41.16Zm-13.711,1.867h-36.961c-8.094,0-13.118-1.309-16.292-4.24a12.6,12.6,0,0,1-3.5-5.939,30.977,30.977,0,0,1-.98-8.551V27449a31.035,31.035,0,0,1,.979-8.549,12.567,12.567,0,0,1,3.494-5.939c3.172-2.934,8.2-4.242,16.3-4.242h36.943v11.93h-36.416c-3.324,0-5.283.473-6.35,1.529-1.023,1.016-1.46,2.775-1.46,5.889v16.293c0,3.123.437,4.875,1.46,5.857,1.074,1.031,3,1.471,6.44,1.471h36.343Zm-36.961-52.812a38.973,38.973,0,0,0-9.3.906,12.6,12.6,0,0,0-5.643,2.8,10.649,10.649,0,0,0-2.931,5.029,29.1,29.1,0,0,0-.9,7.992v17.352a29.067,29.067,0,0,0,.9,7.992,10.651,10.651,0,0,0,2.933,5.029,12.6,12.6,0,0,0,5.644,2.8,38.94,38.94,0,0,0,9.291.906h34.961v-7.844h-34.343c-4,0-6.345-.607-7.826-2.029a6.166,6.166,0,0,1-1.659-3.035,17.421,17.421,0,0,1-.415-4.264v-16.293c0-3.7.613-5.883,2.052-7.309,1.491-1.479,3.812-2.109,7.758-2.109h34.416v-7.93Zm-25.833,52.813h-12.559l-.227-1.008h-.757V27429.3l-32.017-28.73h18.563l.283.25,20.249,17.844,20.9-18.094h17.723l-32.156,28.887Zm-11.542-2h9.542v-54.52l.332-.3,28.605-25.7h-11.758l-21.655,18.75-.655-.578-20.621-18.172h-12.584l28.794,25.84Zm451.5,1.523h-39.416v-.057c-7.829-.105-12.763-1.477-15.918-4.4a13.051,13.051,0,0,1-3.614-6.164,32.356,32.356,0,0,1-1.013-8.887v-16.871a32.189,32.189,0,0,1,1.019-8.883,13.075,13.075,0,0,1,3.625-6.164c3.293-3.047,8.506-4.406,16.9-4.406h38.416v12.348H8660.6c-3.472,0-5.521.494-6.645,1.6-1.084,1.068-1.546,2.914-1.546,6.17v15.766c0,3.264.457,5.1,1.527,6.131,1.123,1.082,3.128,1.545,6.706,1.545h37.8Zm-37.416-2h35.416v-8.27h-35.8c-4.144,0-6.564-.629-8.095-2.105a6.393,6.393,0,0,1-1.709-3.143,18.15,18.15,0,0,1-.43-4.428V27448.9c0-3.844.641-6.115,2.142-7.6,1.548-1.525,3.955-2.178,8.049-2.178h35.842v-8.348h-36.416a40.329,40.329,0,0,0-9.66.945,13.137,13.137,0,0,0-5.883,2.93c-2.768,2.561-4,6.748-4,13.578v16.871a30.5,30.5,0,0,0,.934,8.332,11.122,11.122,0,0,0,3.054,5.252,13.1,13.1,0,0,0,5.88,2.928,40.432,40.432,0,0,0,9.678.945h1Zm470.662,1.949h-13.972v-25.971l-33.245-29.811h19.2l.283.25,21.082,18.578,21.759-18.828H9165.1l-1.943,1.744-31.475,28.244Zm-11.972-2h9.972v-24.684l.332-.3,29.863-26.8h-12.34l-22.517,19.484-.655-.578-21.454-18.906H9089.7l30.019,26.916Zm-108.338,2H8995.1l-.295-.467-7.521-11.912h-36.226l-7.687,12.379h-16.2l.967-1.533,31.32-49.676a12.389,12.389,0,0,1,3.724-4.107,11.013,11.013,0,0,1,6.226-1.648,10.813,10.813,0,0,1,6.188,1.654,12.952,12.952,0,0,1,3.678,4.1Zm-15.176-2h11.562l-30.188-48.154a10.619,10.619,0,0,0-3.087-3.494,8.91,8.91,0,0,0-5.078-1.316,9.076,9.076,0,0,0-5.128,1.322,10.527,10.527,0,0,0-3.122,3.486l-.006.01-30.355,48.146h11.461l7.687-12.379h38.44l.294.467Zm-118.815,2h-14.018v-55.781h44.2a42.558,42.558,0,0,1,9.9.955,15.249,15.249,0,0,1,6.658,3.215c3.233,2.842,4.676,7.219,4.676,14.189v4.668a27.8,27.8,0,0,1-1,8.283,11,11,0,0,1-3.6,5.51,15.14,15.14,0,0,1-6.648,2.818,51.061,51.061,0,0,1-10,.771h-30.186Zm-12.018-2h10.018v-15.371h32.186c15.282,0,19.237-3.162,19.237-15.383v-4.668c0-12.385-4.675-16.359-19.237-16.359h-42.2Zm-119.949,2h-20.5c-8.41,0-13.627-1.359-16.914-4.406a13.054,13.054,0,0,1-3.616-6.164,32.366,32.366,0,0,1-1.013-8.887v-16.871a32.172,32.172,0,0,1,1.02-8.885,13.08,13.08,0,0,1,3.626-6.162c3.294-3.047,8.5-4.406,16.9-4.406h20.5c8.451,0,13.691,1.359,16.989,4.406a13.031,13.031,0,0,1,3.624,6.164,32.284,32.284,0,0,1,1.014,8.883v16.871a32.211,32.211,0,0,1-1.02,8.889,13.059,13.059,0,0,1-3.636,6.164C8759.089,27483.2,8753.854,27484.559,8745.419,27484.559Zm-20.5-53.781a40.293,40.293,0,0,0-9.656.945,13.137,13.137,0,0,0-5.883,2.93c-2.77,2.563-4,6.75-4,13.578v16.871a30.457,30.457,0,0,0,.935,8.332,11.114,11.114,0,0,0,3.054,5.252,13.1,13.1,0,0,0,5.88,2.928,40.417,40.417,0,0,0,9.675.945h20.5a40.715,40.715,0,0,0,9.709-.945,13.179,13.179,0,0,0,5.907-2.93,11.111,11.111,0,0,0,3.07-5.252,30.273,30.273,0,0,0,.94-8.33v-16.871c0-13.375-4.586-17.453-19.627-17.453ZM8511.8,27475.1h-19.207c-3.595,0-6.336-.334-8.032-1.961s-2.028-4.207-2.028-7.6V27449.9a19.173,19.173,0,0,1,.389-4.359,6.265,6.265,0,0,1,1.629-3.115,6.636,6.636,0,0,1,3.234-1.654,21.086,21.086,0,0,1,4.809-.434H8511.8c3.933,0,6.261.621,7.784,2.076s2.19,3.705,2.19,7.486v15.637c0,3.906-.658,6.184-2.2,7.613C8518.079,27474.533,8515.826,27475.1,8511.8,27475.1Zm-19.207-32.762c-3.581,0-5.566.451-6.637,1.512-1.012,1-1.424,2.752-1.424,6.051v15.637c0,3.412.409,5.2,1.413,6.158,1.039,1,2.965,1.4,6.647,1.4H8511.8c3.425,0,5.343-.424,6.414-1.416,1.094-1.014,1.561-2.852,1.561-6.146V27449.9c0-3.182-.47-4.986-1.572-6.039s-3.076-1.523-6.4-1.523Zm-48.8,32.762h-19.211c-3.594,0-6.334-.334-8.03-1.961s-2.027-4.207-2.027-7.6V27449.9a19.173,19.173,0,0,1,.389-4.359,6.256,6.256,0,0,1,1.628-3.115,6.633,6.633,0,0,1,3.233-1.654,21.082,21.082,0,0,1,4.808-.434h19.211c3.932,0,6.259.621,7.783,2.076s2.19,3.707,2.19,7.486v15.637c0,3.906-.658,6.184-2.2,7.613C8450.073,27474.533,8447.821,27475.1,8443.795,27475.1Zm-19.211-32.762c-3.58,0-5.564.451-6.635,1.512-1.011,1-1.423,2.752-1.423,6.051v15.637c0,3.412.409,5.2,1.412,6.158,1.039,1,2.965,1.4,6.646,1.4h19.211c3.424,0,5.342-.424,6.412-1.416,1.095-1.014,1.562-2.854,1.562-6.146V27449.9c0-3.18-.471-4.986-1.572-6.039s-3.077-1.523-6.4-1.523Zm-48.905,32.762h-30.819v-34.762h30.819c3.956,0,6.3.629,7.85,2.1s2.207,3.707,2.207,7.459v15.711c0,3.645-.784,6.029-2.47,7.508C8381.705,27474.486,8379.365,27475.1,8375.679,27475.1Zm-28.819-2h28.819c3.166,0,5.1-.457,6.269-1.484,1.22-1.07,1.788-2.979,1.788-6V27449.9c0-3.111-.489-4.965-1.587-6.012-1.125-1.072-3.12-1.551-6.47-1.551h-28.819Zm398.073,1.2h-19.441c-3.639,0-6.415-.338-8.137-1.99-1.7-1.635-2.054-4.256-2.054-7.686v-15.859a19.354,19.354,0,0,1,.395-4.41,6.35,6.35,0,0,1,1.648-3.15,6.724,6.724,0,0,1,3.274-1.676,21.129,21.129,0,0,1,4.873-.443h19.441c3.972,0,6.327.631,7.875,2.107s2.227,3.754,2.227,7.572v15.859c0,3.943-.669,6.246-2.238,7.7C8751.278,27473.725,8749,27474.3,8744.933,27474.3Zm-19.441-33.215c-3.633,0-5.648.461-6.74,1.541-1.03,1.02-1.45,2.8-1.45,6.139v15.859c0,3.453.417,5.262,1.438,6.242,1.061,1.018,3.018,1.434,6.752,1.434h19.441c3.465,0,5.41-.432,6.5-1.445,1.119-1.035,1.6-2.9,1.6-6.23v-15.859c0-3.176-.5-5.064-1.607-6.125-1.127-1.076-3.13-1.555-6.494-1.555Zm258.521,21.848H8954.37l.935-1.523,13.882-22.609.852,1.387Zm-26.068-2h22.492l-11.25-18.312Zm-50.548-1.48h-32.011v-20.367h31.837c3.676,0,5.869.541,7.335,1.807,1.356,1.174,2.04,2.951,2.168,5.689h.064v4.7c0,3.23-.675,5.229-2.188,6.482C8913.173,27458.943,8911.019,27459.449,8907.4,27459.449Zm-30.011-2H8907.4c3.075,0,4.9-.379,5.93-1.229s1.464-2.363,1.464-4.943v-2.7h-.042v-1c0-2.684-.462-4.279-1.5-5.176-1.057-.914-2.915-1.32-6.026-1.32h-29.837Zm-296.188.848h-30.116v-18.2H8581.2c3.89,0,6.654.223,8.42,1.332a4.752,4.752,0,0,1,1.987,2.516,11.119,11.119,0,0,1,.511,3.77v2.871c0,2.355-.3,4.955-2.559,6.367C8587.776,27458.072,8585.038,27458.3,8581.2,27458.3Zm-28.116-2H8581.2c3.389,0,5.927-.176,7.3-1.035.842-.527,1.621-1.459,1.621-4.672v-2.871c0-3-.624-4-1.562-4.592-1.355-.852-3.921-1.025-7.356-1.025h-28.116Z" transform="translate(-27400.57 9165.104) rotate(-90)" opacity="0.67"/>
</svg>
