<svg xmlns="http://www.w3.org/2000/svg" width="483.766" height="444.838" viewBox="0 0 483.766 444.838">
  <path id="NYCDoor" d="M22617,19979.836a6,6,0,0,1-6-6v-346h.133v-54.168c0-3.723,2.857-5.455,7-5.455a8.222,8.222,0,0,1,6.139,2.156l43.283,41.73v-42.6H22680v54.795a5.252,5.252,0,0,1-1.145,3.541h9.971v-61.727l-34.566-31.113h17.707l23.764,21.01,24.191-21.01h16.762l-34.734,31.293v61.547h18.963c-8.213-2.334-10.93-8.117-10.93-18.965v-19.781c0-14.873,5.094-20.223,22.471-20.223h40.873v11.326h-40.264c-8.033,0-10.021,2.336-10.021,9.6v18.576c0,7.344,1.988,9.494,10.119,9.494h40.184v9.975h15.586v-59.119h47.939c18.02,0,23.254,5.5,23.254,20.762v19c0,10.965-2.7,16.891-10.908,19.357h29.867c-8.141-2.467-10.846-8.393-10.846-19.357v-19c0-15.262,5.24-20.762,23.08-20.762h22.98c17.939,0,23.162,5.5,23.162,20.762v19c0,10.965-2.705,16.891-10.875,19.357h29.816c-8.141-2.467-10.844-8.393-10.844-19.357v-19c0-15.262,5.238-20.762,23.078-20.762h22.977c17.943,0,23.166,5.5,23.166,20.762v19c0,10.965-2.707,16.891-10.879,19.357h19.6v-59.119h47.395c16.959,0,23.881,3.641,23.881,18.2v4.18c0,14.021-7.541,17.66-24.061,17.66h-10.641l28.424,19.08H23090v1.016l.145.1H23090v344.887a6,6,0,0,1-6,6Zm450.17-352-30.283-20.6v20.6Zm-399.9,0a10.956,10.956,0,0,1-1-.846l-42.959-40.445v41.291Zm291.676-37.736v17.84c0,7.9,1.779,9.76,10.3,9.76h21.834c7.9,0,10.2-1.859,10.2-9.76v-17.84c0-7.541-2.3-9.762-10.2-9.762h-21.834C22960.727,19580.34,22958.947,19582.561,22958.947,19590.1Zm-77.314,0v17.84c0,7.9,1.779,9.76,10.3,9.76h21.838c7.9,0,10.2-1.859,10.2-9.76v-17.84c0-7.541-2.3-9.762-10.2-9.762h-21.838C22883.412,19580.34,22881.633,19582.561,22881.633,19590.1Zm-79.207,27.6h33.9c7.279,0,10.3-2.039,10.3-9.68v-17.92c0-7.461-2.318-9.762-10.3-9.762h-33.9Zm234.459-19.162h33.1c8.7,0,11.279-1.061,11.279-7.639v-3.281c0-6.479-2.4-7.539-11.279-7.539h-33.1Z" transform="translate(-22611 -19534.998)" fill="#ce0217"/>
</svg>
