<svg xmlns="http://www.w3.org/2000/svg" width="17.986" height="17.986" viewBox="0 0 17.986 17.986">
  <path id="phone" d="M8.747,4.03l-.835.334ZM9.7,6.4l.835-.334ZM9.407,8.22,10.1,8.8Zm-.51.612.691.576Zm.11,2.423-.636.636Zm1.724,1.724.636-.636Zm2.423.11-.576-.691Zm.612-.51.576.691Zm1.819-.288-.334.835Zm2.37.948.334-.835ZM4.6,3.8H7.077V2H4.6Zm3.309.565.948,2.37,1.67-.668L9.582,3.7Zm.8,3.28-.51.612L9.588,9.408,10.1,8.8Zm-.345,4.247,1.724,1.724,1.272-1.272L9.643,10.619ZM13.73,13.78l.612-.51-1.151-1.382-.612.51Zm1.522-.654,2.37.948.668-1.67-2.37-.948Zm2.936,1.783v2.474h1.8V14.909Zm-.8,3.279A13.584,13.584,0,0,1,3.8,4.6H2A15.383,15.383,0,0,0,17.383,19.986Zm.8-.8a.8.8,0,0,1-.8.8v1.8a2.6,2.6,0,0,0,2.6-2.6Zm-.565-3.309a.9.9,0,0,1,.565.835h1.8a2.7,2.7,0,0,0-1.7-2.5Zm-3.28-.8a.9.9,0,0,1,.91-.144l.668-1.67a2.7,2.7,0,0,0-2.729.432Zm-4.247.345a2.7,2.7,0,0,0,3.635.165L12.578,12.4a.9.9,0,0,1-1.212-.055ZM8.206,8.256a2.7,2.7,0,0,0,.165,3.635l1.272-1.272a.9.9,0,0,1-.055-1.212ZM8.86,6.734a.9.9,0,0,1-.144.91L10.1,8.8a2.7,2.7,0,0,0,.432-2.729ZM7.077,3.8a.9.9,0,0,1,.835.565L9.582,3.7A2.7,2.7,0,0,0,7.077,2ZM4.6,2A2.6,2.6,0,0,0,2,4.6H3.8a.8.8,0,0,1,.8-.8Z" transform="translate(-2 -2)"/>
</svg>
