<svg xmlns="http://www.w3.org/2000/svg" width="88.908" height="75.052" viewBox="0 0 88.908 75.052">
  <path id="testimonial" d="M23357.408,11237.133s13.123-3.469,12.389-17.531c-.75-14.1-12.389-14.832-12.389-14.832H23345V11171h40.873v40.264a33.342,33.342,0,0,1-7.863,22.4,36.931,36.931,0,0,1-20.6,12.385Zm-48,0s13.123-3.469,12.391-17.531c-.752-14.1-12.391-14.832-12.391-14.832H23297V11171h40.875v40.264a33.338,33.338,0,0,1-7.865,22.4,36.931,36.931,0,0,1-20.6,12.385Z" transform="translate(-23297 -11170.997)" fill="#ce0217" opacity="0.08"/>
</svg>
